PathFileType	4	(X/Y/Z)	S1_rest_med_left.trc
DataRate	CameraRate	NumFrames	NumMarkers	Units	OrigDataRate	OrigDataStartFrame	OrigNumFrames
250.00	250.00	21	18	mm	250.00	19787	22613
Frame#	Time	c7	r_should	l_should	clavicle	r_upa	r_elb_l	r_elb_m	r_low	r_wri_l	r_wri_m	r_met	l_upa	l_elb_l	l_elb_m	l_low	l_wri_l	l_wri_m	l_met
	X1	Y1	Z1	X2	Y2	Z2	X3	Y3	Z3	X4	Y4	Z4	X5	Y5	Z5	X6	Y6	Z6	X7	Y7	Z7	X8	Y8	Z8	X9	Y9	Z9	X10	Y10	Z10	X11	Y11	Z11	X12	Y12	Z12	X13	Y13	Z13	X14	Y14	Z14	X15	Y15	Z15	X16	Y16	Z16	X17	Y17	Z17	X18	Y18	Z18
19787	79.14400	448.92984	1417.79089	7.51345	521.20258	1352.22522	189.13960	487.59885	1366.02161	-181.16084	593.17725	1305.13684	-9.10824	494.58084	1156.99536	259.22803	508.18192	1059.04138	274.69449	438.11346	1032.80481	205.67815	492.74158	927.14966	289.02444	590.50525	862.68591	253.18974	528.69513	830.84564	270.08908	641.27429	785.38690	263.22568	482.62711	1142.95984	-219.74574	485.48047	1060.57666	-240.17278	471.82339	1028.92444	-138.46826	454.65701	910.96759	-220.06076	509.70377	828.20203	-269.33838	476.39932	797.07007	-207.41605	481.07584	759.26532	-293.78641
19788	79.14800	448.95151	1417.79236	7.52271	521.23273	1352.22131	189.13150	487.59650	1366.02026	-181.16855	593.18408	1305.12537	-9.12338	494.60034	1156.98645	259.21359	508.26584	1058.89429	274.74551	438.09366	1032.82300	205.68156	492.71606	927.15210	289.03104	590.46375	862.66956	253.19582	528.65100	830.84106	270.09784	641.21887	785.36029	263.23569	482.60745	1142.96338	-219.77751	485.45511	1060.58057	-240.19626	471.80600	1028.92102	-138.49028	454.61572	910.97614	-220.10327	509.64987	828.21265	-269.38974	476.36136	797.07074	-207.44836	481.00961	759.29712	-293.84933
19789	79.15200	448.97183	1417.79004	7.53232	521.26733	1352.21838	189.12190	487.59616	1366.02332	-181.17035	593.18939	1305.11243	-9.12693	494.61057	1156.97656	259.20374	508.13882	1059.07483	274.66415	438.08493	1032.83337	205.68346	492.68594	927.15204	289.03683	590.42468	862.65381	253.19969	528.60608	830.83374	270.10553	641.16608	785.33575	263.24173	482.58789	1142.96692	-219.80075	485.42487	1060.58240	-240.22026	471.76495	1028.92285	-138.52167	454.57349	910.98547	-220.13986	509.59708	828.22064	-269.43973	476.32593	797.07391	-207.47739	480.94257	759.32373	-293.90991
19790	79.15600	448.99374	1417.79639	7.53404	521.29993	1352.21436	189.11636	487.59961	1366.02075	-181.17783	593.20013	1305.09631	-9.11874	494.62503	1156.96606	259.18890	508.18802	1059.13281	274.77127	438.07565	1032.83923	205.68660	492.65857	927.14911	289.04794	590.38751	862.63721	253.20575	528.56653	830.82819	270.11765	641.10852	785.30774	263.25226	482.56702	1142.97107	-219.81050	485.38934	1060.58496	-240.23726	471.74341	1028.92236	-138.53812	454.53275	910.99060	-220.17160	509.54718	828.22333	-269.48303	476.28860	797.08740	-207.51508	480.88412	759.34753	-293.97159
19791	79.16000	449.01782	1417.79700	7.55176	521.32990	1352.20959	189.11255	487.59326	1366.01990	-181.17888	593.20917	1305.08606	-9.11410	494.63571	1156.96277	259.18423	508.28546	1059.15930	274.92599	438.06555	1032.85229	205.69557	492.63351	927.14752	289.05856	590.34863	862.61853	253.21745	528.52826	830.82251	270.13254	641.05939	785.28381	263.27576	482.54691	1142.97034	-219.81963	485.35461	1060.58801	-240.25079	471.73590	1028.92041	-138.55331	454.49072	910.99304	-220.19812	509.50266	828.22571	-269.52341	476.25293	797.09418	-207.54445	480.82571	759.36554	-294.02573
19792	79.16400	449.03473	1417.79761	7.55970	521.36121	1352.20276	189.10490	487.59100	1366.01843	-181.17165	593.20984	1305.07507	-9.12691	494.65332	1156.96606	259.18314	508.12607	1059.13403	274.71222	438.05606	1032.86597	205.69720	492.61169	927.14612	289.05969	590.32324	862.60101	253.22589	528.49365	830.81372	270.13541	641.01709	785.26019	263.29642	482.52063	1142.96802	-219.83875	485.31937	1060.59143	-240.26666	471.74991	1028.90759	-138.56929	454.44675	910.99841	-220.22734	509.45462	828.22980	-269.56094	476.22510	797.09589	-207.56744	480.76843	759.38458	-294.08694
19793	79.16800	449.05264	1417.79358	7.55675	521.38959	1352.20044	189.10130	487.58914	1366.01184	-181.17204	593.21497	1305.06287	-9.14445	494.66306	1156.96143	259.17340	508.09048	1059.12537	274.65021	438.05869	1032.86743	205.69070	492.58978	927.14746	289.05719	590.29974	862.58887	253.23334	528.45892	830.80695	270.13843	640.97693	785.24310	263.31030	482.49380	1142.96509	-219.84746	485.27258	1060.59717	-240.29573	471.74609	1028.90613	-138.59343	454.40381	911.00140	-220.24933	509.40536	828.23370	-269.59848	476.20511	797.09662	-207.58829	480.72318	759.40131	-294.14154
19794	79.17200	449.06876	1417.79211	7.54056	521.41357	1352.20032	189.09830	487.59018	1366.00977	-181.17995	593.22260	1305.05469	-9.16383	494.68069	1156.97559	259.16843	508.08340	1059.12573	274.62378	438.05194	1032.86963	205.68756	492.57358	927.15118	289.05396	590.27380	862.57404	253.23296	528.42261	830.80542	270.14084	640.94421	785.23102	263.32037	482.46335	1142.96631	-219.86267	485.22861	1060.60120	-240.31604	471.72882	1028.90295	-138.60451	454.36212	911.00275	-220.26903	509.35626	828.24182	-269.64081	476.18124	797.09467	-207.60654	480.67816	759.40405	-294.19028
19795	79.17600	449.08313	1417.79785	7.53298	521.44128	1352.19165	189.08990	487.59573	1366.00110	-181.19110	593.22791	1305.04944	-9.17959	494.68927	1156.97388	259.15366	508.07596	1059.13220	274.61240	438.03958	1032.87378	205.68362	492.55319	927.15240	289.05151	590.24335	862.56262	253.23015	528.38812	830.80194	270.14249	640.90540	785.21680	263.33026	482.43314	1142.97229	-219.88351	485.18875	1060.60364	-240.33559	471.71384	1028.88464	-138.62164	454.32043	911.00085	-220.28693	509.30011	828.24896	-269.68860	476.16296	797.08704	-207.61699	480.63351	759.40240	-294.23636
19796	79.18000	449.10010	1417.80420	7.53677	521.45996	1352.18823	189.07706	487.59305	1365.99414	-181.20071	593.23755	1305.04895	-9.19379	494.69458	1156.97095	259.14139	508.07397	1059.13330	274.61050	438.02490	1032.87939	205.68800	492.52875	927.15082	289.04623	590.21185	862.55621	253.22717	528.35352	830.79639	270.13821	640.87482	785.19946	263.32755	482.39804	1142.97632	-219.89581	485.14062	1060.60840	-240.35960	471.69159	1028.87317	-138.62956	454.27429	910.99847	-220.30205	509.24039	828.25934	-269.73294	476.13843	797.08453	-207.63908	480.58157	759.40216	-294.28564
19797	79.18400	449.12012	1417.81433	7.53085	521.47485	1352.18604	189.05719	487.58478	1365.99109	-181.20700	593.24298	1305.05090	-9.21850	494.68649	1156.96887	259.13708	508.07584	1059.13110	274.61047	438.01797	1032.88525	205.68639	492.50803	927.14752	289.04013	590.18170	862.55219	253.22420	528.32196	830.78894	270.13654	640.83514	785.18225	263.32928	482.36356	1142.98535	-219.90895	485.09103	1060.60840	-240.37575	471.69958	1028.86401	-138.63588	454.22974	910.99872	-220.32005	509.18530	828.27167	-269.77737	476.11713	797.08704	-207.66115	480.53009	759.40588	-294.34360
19798	79.18800	449.13434	1417.82031	7.51328	521.49432	1352.19165	189.04692	487.57663	1365.99622	-181.21516	593.24548	1305.05029	-9.24345	494.68518	1156.97644	259.13367	508.15387	1059.14685	274.72876	438.01511	1032.88965	205.67174	492.48825	927.14868	289.03674	590.14978	862.55292	253.22830	528.29266	830.78326	270.13428	640.79773	785.17542	263.34009	482.33282	1142.99719	-219.92606	485.04636	1060.61108	-240.39226	471.71005	1028.85767	-138.65166	454.19211	910.99835	-220.33267	509.12970	828.28821	-269.82068	476.10089	797.08105	-207.67259	480.48312	759.41479	-294.39908
19799	79.19200	449.15189	1417.82117	7.50904	521.51251	1352.19800	189.03444	487.57086	1365.99573	-181.22192	593.25110	1305.05054	-9.26633	494.68430	1156.98560	259.10724	508.24933	1059.17139	274.88675	438.01587	1032.89209	205.65930	492.46823	927.15179	289.03198	590.12512	862.55670	253.22736	528.26410	830.78149	270.12958	640.76099	785.16638	263.34216	482.30075	1143.01294	-219.93918	485.00537	1060.61597	-240.41107	471.72458	1028.85156	-138.65968	454.15558	911.00073	-220.34360	509.07980	828.30536	-269.86163	476.08264	797.07678	-207.68318	480.44135	759.42419	-294.44275
19800	79.19600	449.17227	1417.82214	7.51606	521.53076	1352.20691	189.01974	487.56628	1365.99609	-181.23100	593.25549	1305.04614	-9.29396	494.68100	1156.98560	259.09552	508.09784	1059.14905	274.66916	438.01691	1032.89441	205.65854	492.45346	927.15759	289.02670	590.10406	862.56244	253.21954	528.24023	830.78540	270.12769	640.72681	785.16016	263.33353	482.27542	1143.02710	-219.95705	484.96371	1060.61523	-240.43369	471.72736	1028.85046	-138.67664	454.12106	911.00488	-220.35831	509.03540	828.32428	-269.89957	476.06580	797.08246	-207.70282	480.40076	759.42578	-294.48618
19801	79.20000	449.18976	1417.82568	7.50202	521.55493	1352.21179	189.00771	487.56693	1365.99792	-181.24661	593.26019	1305.04504	-9.32200	494.68356	1156.99756	259.09671	508.05844	1059.14758	274.60498	438.01328	1032.90234	205.65573	492.44522	927.16443	289.01993	590.08551	862.57117	253.20657	528.22119	830.79053	270.12448	640.70331	785.15497	263.31699	482.24936	1143.02783	-219.97333	484.92719	1060.61646	-240.45929	471.72098	1028.84839	-138.69629	454.08963	911.00659	-220.37219	508.99423	828.33447	-269.94293	476.05396	797.08130	-207.72255	480.36539	759.43945	-294.53278
19802	79.20400	449.20016	1417.83496	7.47670	521.57770	1352.21411	188.99187	487.55881	1366.00037	-181.25992	593.26300	1305.04700	-9.35164	494.68439	1157.01050	259.08899	508.05121	1059.15784	274.58948	437.99942	1032.91345	205.65805	492.43228	927.17090	289.01303	590.06689	862.57220	253.19189	528.19965	830.79364	270.11502	640.67969	785.14825	263.29477	482.22519	1143.02112	-219.99109	484.89444	1060.61060	-240.48277	471.73904	1028.83838	-138.71222	454.06061	910.99774	-220.38506	508.95154	828.33563	-269.98615	476.04568	797.07178	-207.73288	480.33032	759.44611	-294.56982
19803	79.20800	449.20911	1417.84290	7.45149	521.59644	1352.21216	188.96844	487.54495	1365.99573	-181.28052	593.27130	1305.04980	-9.37096	494.67432	1157.01892	259.06604	508.05295	1059.16089	274.57895	437.99240	1032.91956	205.66296	492.41876	927.17462	289.00223	590.04895	862.56805	253.17210	528.17786	830.79016	270.10141	640.65033	785.13519	263.27435	482.19739	1143.02002	-220.00941	484.86829	1060.61121	-240.50307	471.76633	1028.81836	-138.71678	454.03220	910.99255	-220.40305	508.91525	828.33600	-270.02515	476.03745	797.05450	-207.73940	480.29483	759.44482	-294.61383
19804	79.21200	449.21280	1417.84851	7.42454	521.61078	1352.20959	188.94539	487.53638	1365.98206	-181.29555	593.27820	1305.04492	-9.40618	494.66180	1157.03442	259.05316	508.05121	1059.16882	274.57614	437.98383	1032.92798	205.64906	492.40601	927.17950	288.98550	590.03003	862.56360	253.15776	528.15741	830.79327	270.08707	640.63074	785.12842	263.25049	482.16833	1143.01111	-220.02420	484.84662	1060.60913	-240.52994	471.76764	1028.80139	-138.73705	454.00345	910.98822	-220.42236	508.88629	828.33496	-270.06149	476.02911	797.04633	-207.75723	480.25125	759.43848	-294.66159
19805	79.21600	449.22366	1417.85742	7.40269	521.63208	1352.20544	188.92300	487.52771	1365.97107	-181.31093	593.28235	1305.04297	-9.43772	494.66174	1157.04260	259.03821	508.05508	1059.17542	274.56625	437.97598	1032.93701	205.64047	492.39594	927.18604	288.97098	590.01447	862.56232	253.13962	528.13837	830.79712	270.06967	640.61761	785.12756	263.22781	482.14032	1142.99927	-220.04083	484.82883	1060.60400	-240.55197	471.77368	1028.78345	-138.76099	453.97833	910.98456	-220.45174	508.85898	828.32605	-270.09888	476.02045	797.03290	-207.78020	480.20609	759.43158	-294.71817
19806	79.22000	449.23007	1417.86670	7.37944	521.65057	1352.20422	188.90059	487.51978	1365.96265	-181.33034	593.27734	1305.04016	-9.47157	494.66293	1157.05371	259.01367	508.13419	1059.19934	274.67291	437.96317	1032.94788	205.63158	492.38736	927.19495	288.95544	590.00165	862.56494	253.12132	528.11871	830.80005	270.05011	640.60254	785.11823	263.20367	482.11877	1142.99121	-220.06352	484.81052	1060.59888	-240.58099	471.77744	1028.76782	-138.78563	453.95505	910.98126	-220.48837	508.82565	828.32422	-270.13745	476.00522	797.02344	-207.80740	480.15619	759.43451	-294.77762
19807	79.22400	449.23303	1417.86914	7.35327	521.66278	1352.20508	188.87341	487.50443	1365.95276	-181.35608	593.27258	1305.03418	-9.49919	494.66595	1157.07019	259.00323	508.23944	1059.22058	274.80811	437.95081	1032.95984	205.61713	492.37582	927.20203	288.93869	589.98706	862.56104	253.10570	528.09735	830.80414	270.03070	640.57861	785.10590	263.17154	482.10156	1142.98633	-220.09358	484.78836	1060.59448	-240.61333	471.76382	1028.76538	-138.81648	453.92828	910.97803	-220.52336	508.78894	828.32050	-270.17978	475.98831	797.01642	-207.83594	480.10883	759.43640	-294.83694
